<?xml version="1.0" standalone="no"?>
<!DOCTYPE svg PUBLIC "-//W3C//DTD SVG 20010904//EN"
 "http://www.w3.org/TR/2001/REC-SVG-20010904/DTD/svg10.dtd">
<svg version="1.0" xmlns="http://www.w3.org/2000/svg"
 width="563.000000pt" height="375.000000pt" viewBox="0 0 563.000000 375.000000"
 preserveAspectRatio="xMidYMid meet">

<g transform="translate(0.000000,375.000000) scale(0.100000,-0.100000)"
fill="#000000" stroke="none">
<path d="M1643 2818 c30 -71 235 -608 614 -1608 l108 -285 110 0 109 0 73 187
73 188 -42 110 c-29 77 -44 106 -50 96 -4 -8 -41 -102 -82 -210 -40 -108 -75
-199 -78 -201 -3 -3 -76 181 -163 407 -87 227 -225 586 -306 798 l-147 385 75
3 c42 2 79 -1 84 -5 4 -4 112 -271 239 -593 128 -322 236 -589 240 -593 7 -8
80 176 80 200 0 9 -91 248 -332 873 -33 85 -69 179 -80 208 l-19 52 -256 0
c-200 0 -254 -3 -250 -12z"/>
<path d="M2343 2813 c6 -22 129 -349 317 -843 76 -201 197 -518 268 -705 l128
-340 110 -3 109 -2 119 317 c135 363 576 1516 603 1581 4 9 -48 12 -244 12
l-248 0 -23 -62 c-38 -107 -299 -778 -304 -783 -3 -3 -13 16 -22 42 -10 27
-57 152 -105 278 l-88 230 -87 3 c-57 2 -86 -1 -86 -8 0 -6 66 -174 146 -373
80 -199 163 -411 185 -470 51 -143 55 -149 67 -117 13 33 374 943 415 1043
l31 77 73 0 73 0 -19 -47 c-10 -27 -76 -199 -146 -383 -302 -788 -447 -1165
-450 -1169 -3 -2 -7 2 -9 10 -10 29 -578 1540 -591 1572 -7 16 7 17 251 15
l258 -3 37 -95 c21 -52 40 -104 43 -115 6 -18 7 -18 16 -4 5 9 36 86 69 170
32 85 62 162 66 172 7 16 -20 17 -480 17 -459 0 -487 -1 -482 -17z"/>
</g>
</svg>
