<svg xmlns="http://www.w3.org/2000/svg" viewBox="1 1.5 198.5 62.7"><style>.a{fill:#fff;}.b{fill:#1a1a1a;}</style><rect width="198.5" height="62.7" x="1" y="1.5" ry="3.9" rx="5.1" class="a"/><path d="m55.8 7.7c7.5 5.9 12.5 15.3 12.5 25.9 0 9.7-4.1 18.3-10.5 24.2H193.9V7.7H55.8z" class="b"/><path d="m507 22.2c1 0 1.8 0.1 2.5 0.4 0.7 0.3 1.3 0.7 1.7 1.2 0.4 0.5 0.8 1 1 1.6 0.2 0.6 0.3 1.2 0.3 1.9 0 0.6-0.1 1.3-0.3 1.9-0.2 0.6-0.5 1.2-1 1.6-0.4 0.5-1 0.9-1.7 1.2-0.7 0.3-1.5 0.4-2.5 0.4h-3.7v5.7h-3.5V13.1h7.2zm-1 7.5c0.4 0 0.8 0 1.2-0.1 0.4-0.1 0.7-0.2 1-0.3 0.3-0.2 0.5-0.4 0.7-0.7 0.2-0.3 0.3-0.7 0.3-1.2 0-0.5-0.1-0.9-0.3-1.2-0.2-0.3-0.4-0.6-0.7-0.7-0.3-0.2-0.6-0.3-1-0.3-0.4-0.1-0.8-0.1-1.2-0.1h-2.7v4.8l2.7 0 0 0z" class="a"/><path d="m527.3 37c-1.2 1.1-2.9 1.6-5 1.6-2.1 0-3.8-0.5-5-1.6-1.2-1-1.8-2.7-1.8-4.8v-9.9h3.5v9.9c0 0.4 0 0.9 0.1 1.3 0.1 0.4 0.2 0.8 0.5 1.1 0.2 0.3 0.6 0.6 1 0.8 0.4 0.2 1 0.3 1.7 0.3 1.2 0 2.1-0.3 2.6-0.8 0.5-0.6 0.7-1.4 0.7-2.6v-9.9h3.5v9.9c0 2.2-0.6 3.8-1.8 4.8z" class="a"/><path d="m540.7 22.2c0.8 0 1.4 0.1 2.1 0.2 0.6 0.1 1.2 0.4 1.6 0.7 0.4 0.3 0.8 0.7 1 1.2 0.3 0.5 0.4 1.1 0.4 1.9 0 0.8-0.2 1.5-0.5 2-0.4 0.5-0.9 1-1.6 1.3 1 0.3 1.7 0.8 2.2 1.5 0.5 0.7 0.7 1.6 0.7 2.6 0 0.8-0.2 1.5-0.5 2.1-0.3 0.6-0.7 1.1-1.3 1.4-0.5 0.4-1.1 0.6-1.8 0.8-0.7 0.2-1.4 0.3-2.1 0.3h-7.7V13.1h7.5zm-0.4 6.5c0.6 0 1.1-0.1 1.5-0.4 0.4-0.3 0.6-0.8 0.6-1.5 0-0.4-0.1-0.7-0.2-0.9-0.1-0.2-0.3-0.4-0.5-0.6-0.2-0.1-0.5-0.2-0.8-0.3-0.3-0.1-0.6-0.1-0.9-0.1h-3.3v3.7h3.5zm0.2 6.8c0.3 0 0.7 0 1-0.1 0.3-0.1 0.6-0.2 0.8-0.3 0.2-0.2 0.4-0.4 0.6-0.6 0.1-0.3 0.2-0.6 0.2-1 0-0.8-0.2-1.4-0.7-1.8-0.5-0.3-1.1-0.5-1.8-0.5h-3.8v4.4h3.7z" class="a"/><path d="m553.5 22.2v13h7.7v3H136.6V13.1h3.5z" class="a"/><path d="m567.7 22.2v16h-3.5V13.1h3.5z" class="a"/><path d="m582.1 26.5c-0.2-0.3-0.5-0.6-0.8-0.9-0.3-0.3-0.7-0.5-1.1-0.6-0.4-0.1-0.8-0.2-1.2-0.2-0.8 0-1.5 0.2-2 0.5-0.5 0.3-1 0.7-1.3 1.2-0.3 0.5-0.6 1.1-0.7 1.8-0.2 0.7-0.2 1.3-0.2 2 0 0.7 0.1 1.3 0.2 2 0.2 0.6 0.4 1.2 0.7 1.7 0.3 0.5 0.8 0.9 1.3 1.2 0.5 0.3 1.2 0.5 2 0.5 1.1 0 1.9-0.3 2.5-1 0.6-0.7 1-1.5 1.1-2.6h3.4c-0.1 1-0.3 1.9-0.7 2.7-0.4 0.8-0.9 1.5-1.5 2.1-0.6 0.6-1.3 1-2.1 1.3-0.8 0.3-1.7 0.4-2.7 0.4-1.2 0-2.3-0.2-3.3-0.6-1-0.4-1.8-1-2.5-1.8-0.7-0.7-1.2-1.6-1.5-2.6-0.4-1-0.5-2.1-0.5-3.3 0-1.2 0.2-2.3 0.5-3.3 0.4-1 0.9-1.9 1.5-2.7 0.7-0.8 1.5-1.4 2.5-1.8 1-0.4 2.1-0.7 3.3-0.7 0.9 0 1.7 0.1 2.5 0.4 0.8 0.3 1.5 0.6 2.1 1.1 0.6 0.5 1.1 1.1 1.5 1.8 0.4 0.7 0.7 1.5 0.8 2.5h-3.4c-0.1-0.4-0.2-0.8-0.4-1.1z" class="a"/><path d="m506.7 44.6c1 0 2 0.2 2.9 0.5 0.9 0.3 1.6 0.8 2.3 1.5 0.6 0.7 1.1 1.5 1.5 2.5 0.4 1 0.5 2.1 0.5 3.5 0 1.2-0.1 2.2-0.4 3.2-0.3 1-0.7 1.8-1.3 2.6-0.6 0.7-1.3 1.3-2.2 1.7-0.9 0.4-2 0.6-3.2 0.6h-6.8V35.5h6.8zm-0.2 13c0.5 0 1-0.1 1.5-0.2 0.5-0.2 0.9-0.4 1.3-0.8 0.4-0.4 0.7-0.9 0.9-1.5 0.2-0.6 0.3-1.4 0.3-2.2 0-0.8-0.1-1.5-0.2-2.2-0.2-0.6-0.4-1.2-0.8-1.7-0.4-0.5-0.8-0.8-1.4-1.1-0.6-0.3-1.3-0.4-2.2-0.4h-2.5v10.1h3.1v0z" class="a"/><path d="m517.3 49.3c0.4-1 0.9-1.9 1.5-2.7 0.7-0.8 1.5-1.4 2.5-1.8 1-0.4 2.1-0.7 3.3-0.7 1.2 0 2.3 0.2 3.3 0.7 1 0.4 1.8 1 2.4 1.8 0.7 0.8 1.2 1.6 1.5 2.7 0.4 1 0.5 2.1 0.5 3.3 0 1.2-0.2 2.3-0.5 3.3-0.4 1-0.9 1.9-1.5 2.6-0.7 0.7-1.5 1.3-2.4 1.8-1 0.4-2.1 0.6-3.3 0.6-1.2 0-2.3-0.2-3.3-0.6-1-0.4-1.8-1-2.5-1.8-0.7-0.7-1.2-1.6-1.5-2.6-0.4-1-0.5-2.1-0.5-3.3 0-1.2 0.2-2.3 0.5-3.3zm3.2 5.3c0.2 0.6 0.4 1.2 0.7 1.7 0.3 0.5 0.8 0.9 1.3 1.2 0.6 0.3 1.2 0.5 2 0.5 0.8 0 1.5-0.2 2-0.5 0.6-0.3 1-0.7 1.3-1.2 0.3-0.5 0.6-1.1 0.7-1.7 0.2-0.6 0.2-1.3 0.2-2 0-0.7-0.1-1.4-0.2-2-0.2-0.7-0.4-1.2-0.7-1.8-0.3-0.5-0.8-0.9-1.3-1.2-0.5-0.3-1.2-0.5-2-0.5-0.8 0-1.5 0.2-2 0.5-0.5 0.3-1 0.7-1.3 1.2-0.3 0.5-0.6 1.1-0.7 1.8-0.2 0.7-0.2 1.3-0.2 2 0 0.7 0.1 1.3 0.2 2z" class="a"/><path d="m540.7 44.6 3.7 11h0.1l3.5-11h4.9v16h-3.3V40.1h0l-3.9 11.3h-2.7l-3.9-11.2h0v11.2h-3.3V35.5h4.9z" class="a"/><path d="m565.2 44.6 5.9 16h-3.6l-1.2-3.6h-5.9l-1.2 3.6h-3.5l6-16h3.6zm0.2 9.8-2-5.9h0l-2.1 5.9h4.1l0 0z" class="a"/><path d="m577.3 44.6v16h-3.5V35.5h3.5z" class="a"/><path d="m585 44.6 6.6 10.7h0V35.5h3.3v16h-3.5l-6.6-10.7h0v10.7h-3.3V35.5h3.5z" class="a"/><path d="m33.3 4.5c-11.6 0-21.6 6.6-26.4 16a1.5 1.5 0 0 0-0.6 1.3c-1.5 3.4-2.3 7.2-2.3 11.1 0 15.7 13.2 28.4 29.4 28.4 16.2 0 29.4-12.7 29.4-28.4 0-15.7-13.2-28.4-29.4-28.4zm0 3.1c14.6 0 26.3 11.4 26.3 25.4 0 0.8 0 1.7-0.1 2.5l-49.4-14.6C14.6 12.9 23.2 7.5 33.3 7.5zM8.8 23.6 59 38.5c-2.6 11.3-13.1 19.8-25.7 19.8-14.6 0-26.3-11.4-26.3-25.4 0-3.3 0.6-6.4 1.8-9.3z" style="-inkscape-font-specification:Sans;baseline-shift:baseline;block-progression:tb;direction:ltr;fill:#1a1a1a;font-family:Sans;font-size:medium;letter-spacing:normal;line-height:normal;stroke-width:3;text-align:start;text-decoration:none;text-indent:0;text-transform:none;word-spacing:normal"/><path d="m40.3 24.3c-0.4-0.7-1-1.3-1.6-1.9-0.7-0.5-1.4-1-2.2-1.3-0.8-0.3-1.7-0.5-2.6-0.5-1.7 0-3.1 0.3-4.2 1-1.2 0.6-2.1 1.5-2.8 2.6-0.7 1.1-1.2 2.3-1.6 3.7-0.3 1.4-0.5 2.8-0.5 4.3 0 1.4 0.2 2.8 0.5 4.1 0.3 1.3 0.8 2.5 1.6 3.6 0.7 1.1 1.7 1.9 2.8 2.6 1.2 0.6 2.6 1 4.2 1 2.3 0 4-0.7 5.3-2.1 1.3-1.4 2-3.2 2.3-5.5h7.1c-0.2 2.1-0.7 4-1.4 5.7-0.8 1.7-1.8 3.2-3.1 4.3-1.3 1.2-2.8 2.1-4.5 2.7-1.7 0.6-3.6 0.9-5.7 0.9-2.6 0-4.9-0.4-6.9-1.3-2-0.9-3.8-2.1-5.2-3.7-1.4-1.6-2.5-3.4-3.2-5.5-0.8-2.1-1.1-4.4-1.1-6.9 0-2.5 0.4-4.9 1.1-7 0.8-2.2 1.8-4 3.2-5.6 1.4-1.6 3.1-2.9 5.2-3.8 2.1-0.9 4.4-1.4 6.9-1.4 1.9 0 3.6 0.3 5.2 0.8 1.6 0.5 3.1 1.3 4.4 2.3 1.3 1 2.4 2.3 3.2 3.8 0.9 1.5 1.4 3.2 1.6 5.2h-7.1c-0.1-0.8-0.4-1.6-0.9-2.3z" class="b"/></svg>
